<?xml version="1.0" encoding="UTF-8" standalone="no"?>
<!-- Created with Inkscape (http://www.inkscape.org/) -->

<svg
   version="1.1"
   id="svg306"
   width="1536"
   height="1024"
   viewBox="0 0 1536 1024"
   xmlns="http://www.w3.org/2000/svg"
   xmlns:svg="http://www.w3.org/2000/svg">
  <defs
     id="defs310" />
  <g
     id="g312">
    <path
       style="fill:#f9f9f9"
       d="m 353.89169,686.35111 c -9.14239,-2.4587 -17.09143,-7.3918 -25.64536,-15.91516 -9.14102,-9.10836 -12.66299,-15.04086 -15.48882,-26.08977 -1.87877,-7.3459 -1.97815,-11.26667 -1.97815,-78.03934 v -70.30485 l -2.25,-1.1975 c -4.34524,-2.31262 -9.57394,-7.08721 -14.45611,-13.20059 -6.4642,-8.09439 -8.56362,-11.88207 -11.82264,-21.32988 -3.65574,-10.59791 -4.59622,-30.18828 -2.00779,-41.82274 2.33481,-10.49455 8.35048,-21.82401 15.85905,-29.86777 l 6.17749,-6.61779 0.0319,-13.76705 c 0.0287,-12.3824 0.30719,-14.55435 2.76906,-21.59488 3.30529,-9.45256 8.14261,-17.34245 15.04807,-24.54408 6.08847,-6.34961 17.73821,-14.29024 24.40486,-16.63472 7.20708,-2.53453 7.11648,-2.43931 10.62345,-11.16395 10.84224,-26.97328 33.35164,-44.30654 62.87267,-48.41481 15.26153,-2.12386 31.18936,1.48515 41.65282,9.4379 l 3.40282,2.58632 3.3841,-2.97128 c 19.95717,-17.52263 57.53164,-13.21576 74.2977,8.51618 3.88337,5.03356 4.0704,5.13599 11.72776,6.42265 24.4626,4.11044 43.24027,19.28452 50.85264,41.09362 2.01877,5.78368 2.74157,10.16792 3.1585,19.15832 l 0.54065,11.65833 4.1165,1.76967 c 6.22881,2.67775 17.21759,11.24364 22.33919,17.41368 13.51691,16.28395 18.38547,41.16767 11.83696,60.5 -3.03308,8.95418 -5.39013,13.18214 -10.54242,18.91042 -2.31225,2.57075 -3.08095,4.05799 -2.24376,4.34116 4.91284,1.6617 10.92297,7.22208 13.70405,12.67856 l 3.02249,5.93014 v 83.06986 c 0,76.61665 -0.13857,83.57481 -1.78374,89.56986 -5.69279,20.74475 -17.56547,34.95552 -37.21626,44.54529 -16.00514,7.8106 -9.54244,7.4629 -137.31538,7.3889 -95.97644,-0.056 -114.52384,-0.2915 -119.07229,-1.5147 z m 56.88767,-58.59075 c 0,-35.04595 0.17429,-39.36385 1.65499,-41 1.48517,-1.64109 3.48026,-1.82874 19.44329,-1.82874 17.24832,0 17.83557,0.0675 19.34502,2.22251 1.34396,1.91878 1.5567,7.5218 1.5567,41 v 38.77749 h 9 9 v -59.67126 c 0,-54.12141 0.15393,-59.84134 1.65499,-61.5 1.48517,-1.64109 3.48026,-1.82874 19.44329,-1.82874 17.24832,0 17.83557,0.0675 19.34502,2.22251 1.36643,1.95086 1.5567,9.4677 1.5567,61.5 v 59.27749 l 35.75,-0.0148 c 38.92683,-0.0161 43.19315,-0.46924 54.05238,-5.7411 3.10886,-1.50925 8.39747,-5.4441 11.75247,-8.7441 9.55548,-9.39884 13.44515,-19.41914 13.44515,-34.63649 v -6.86351 h -29.95078 c -18.20917,0 -32.02823,-0.43748 -35.25,-1.11594 -8.30098,-1.74806 -15.31808,-5.69881 -21.3454,-12.01782 -21.339,-22.37172 -12.8006,-58.17196 16.32591,-68.45214 6.52477,-2.30291 7.64391,-2.37253 38.47027,-2.39301 l 31.75,-0.0211 -0.004,-28.25 c -0.004,-26.47076 -0.12949,-28.45626 -2.00046,-31.52493 -1.09819,-1.8012 -3.17218,-3.72183 -4.60886,-4.26805 -1.69424,-0.64415 -48.51762,-0.89894 -133.24954,-0.72508 l -130.63714,0.26806 -4.5,2.12593 c -7.40244,3.49713 -13.57526,9.73529 -17.50413,17.68939 l -3.54882,7.18468 0.27647,75 0.27648,75 2.62755,5.5 c 5.01602,10.49953 13.27361,17.66503 23.6484,20.52081 3.2111,0.8839 12.33033,1.32899 28.47405,1.38977 l 23.75,0.0894 z m 165.90005,-41.89194 c 5.79425,-1.3357 9.69738,-4.22738 12.12259,-8.98118 2.44863,-4.7997 2.58307,-12.61758 0.29934,-17.40662 -3.48832,-7.31508 -14.93616,-11.48158 -23.64743,-8.60661 -10.64496,3.51316 -15.51949,15.19493 -10.73638,25.72965 2.18018,4.80182 5.33313,7.16845 11.91045,8.9401 5.76819,1.55369 4.84874,1.52399 10.05143,0.32466 z M 317.62154,468.55728 c 5.9336,-10.51377 17.55533,-19.88831 30.8222,-24.86238 5.66055,-2.12228 7.3131,-2.19835 55.08562,-2.53545 l 49.25,-0.34753 v -30.44015 -30.44015 h -4.7899 c -15.76521,0 -33.24174,-9.75263 -42.52979,-23.73339 -6.17598,-9.29636 -8.78009,-17.52949 -9.42035,-29.78336 -0.50687,-9.70076 -0.44098,-10.11467 2.08875,-13.12108 3.12701,-3.71624 7.5834,-4.83542 11.96348,-3.00451 5.27065,2.20318 6.13473,4.06512 6.76768,14.58328 0.69608,11.56728 3.44186,18.40972 9.94226,24.776 5.99136,5.86774 15.95191,10.17413 23.72787,10.25861 l 2.25,0.0245 v -35.8185 c 0,-41.22699 -0.33895,-43.60126 -7.17112,-50.23166 -5.02378,-4.87541 -11.52541,-6.94984 -21.78202,-6.94984 -8.93776,0 -18.80445,2.50093 -25.6697,6.50656 -12.5709,7.33467 -23.40916,23.04297 -26.99263,39.12144 l -1.81151,8.128 -7.03651,1.22678 c -24.55261,4.28061 -41.11252,25.17292 -39.24893,49.51722 0.29473,3.85 1.52796,9.64107 2.74053,12.86905 1.21257,3.22798 1.80228,6.15298 1.31047,6.5 -0.49182,0.34702 -3.35669,2.24784 -6.36639,4.22405 -6.58907,4.32645 -13.04704,11.17313 -16.00182,16.96498 -7.30945,14.32771 -7.51387,33.22911 -0.51309,47.44192 2.89829,5.88402 8.85226,14.5 10.02007,14.5 0.18245,0 1.69662,-2.41846 3.36483,-5.37434 z m 73.42048,-50.08105 c -17.30315,-3.92216 -32.49891,-18.63105 -36.75592,-35.57827 -2.51893,-10.02791 0.75235,-15.23907 9.56625,-15.23907 4.97416,0 8.46267,2.98404 9.41346,8.05219 2.42476,12.92509 12.23335,21.34659 27.05061,23.22524 10.86914,1.37807 14.46294,3.74355 14.46294,9.51968 0,4.27417 -1.55081,7.714 -4.23293,9.38901 -3.09984,1.93589 -12.41827,2.23746 -19.50441,0.63122 z m 135.73734,21.17718 c 0,-0.70302 1.50932,-4.41552 3.35404,-8.25 5.44801,-11.32438 13.608,-18.4418 25.69078,-22.40837 8.85425,-2.9067 12.45904,-2.71341 16.0321,0.85966 5.36324,5.36324 2.62225,13.01866 -5.71173,15.95252 -6.13411,2.15944 -10.3316,5.09535 -13.46081,9.41509 -1.59741,2.20516 -2.90438,4.42649 -2.90438,4.93629 0,0.55399 9.9574,0.78117 24.75,0.56468 22.98001,-0.33632 25.16204,-0.52606 30.51154,-2.65311 7.6069,-3.02463 14.46662,-9.80964 18.78393,-18.57935 3.13078,-6.35952 3.4066,-7.66499 3.37881,-15.99201 -0.0462,-13.85597 -3.70265,-22.90885 -13.28796,-32.89963 -2.54998,-2.65784 -6.71307,-5.89714 -9.25132,-7.19843 l -4.615,-2.366 -3.1815,4.90989 c -4.66022,7.19195 -13.48725,14.60493 -22.5885,18.96995 -9.45612,4.53521 -15.89022,6.01703 -26.12614,6.01703 -6.98676,0 -7.73776,-0.21005 -10.45078,-2.92308 -3.4341,-3.4341 -3.96697,-9.1065 -1.23104,-13.10441 2.45672,-3.58992 3.25427,-3.94025 9.00874,-3.9572 6.74978,-0.0199 14.79264,-1.75231 19.72585,-4.24895 6.5021,-3.29064 14.03486,-11.1934 17.1992,-18.04399 2.63822,-5.71156 2.87417,-7.16643 2.87417,-17.72237 0,-10.67841 -0.20899,-11.92866 -2.92526,-17.5 -3.43104,-7.03743 -12.35797,-16.24847 -18.7428,-19.33931 -2.43544,-1.17898 -6.54394,-2.43361 -9.13001,-2.78807 l -4.70193,-0.64447 v 5.45442 c 0,13.94104 -7.21294,26.53152 -20.5,35.78357 -4.23673,2.95012 -12.20981,6.03386 -15.60069,6.03386 -5.16543,0 -9.8438,-4.74962 -9.87707,-10.02749 -0.0305,-4.84009 2.12157,-7.49277 7.59061,-9.35626 6.39188,-2.17793 12.3943,-7.37864 15.87197,-13.75203 3.87805,-7.10715 4.17305,-17.08126 0.69966,-23.65548 -5.37986,-10.18266 -15.99738,-16.42491 -28.18448,-16.57022 -7.89125,-0.0941 -13.00915,1.55261 -17.74275,5.70876 -7.61435,6.68549 -7.2107,1.61408 -7.23529,90.90272 l -0.022,79.75 h 26 c 20.43939,0 26,-0.27337 26,-1.27821 z M 1058.1776,664.0423 c -8.2179,-2.3527 -13.9314,-5.86266 -19.964,-12.26454 -8.595,-9.12121 -12.4342,-20.03461 -12.4342,-35.34614 0,-16.61341 4.5216,-28.22759 15.0392,-38.62999 9.4052,-9.3022 14.71,-11.31089 29.9608,-11.34459 12.8683,-0.0284 16.968,1.1182 25.25,7.06219 l 4.75,3.40906 v -23.03007 -23.03007 l 11.75,0.28173 11.75,0.28174 0.2305,66.25 0.2305,66.25 h -11.4805 -11.4805 v -5.5 c 0,-5.23159 -1.1371,-7.19095 -2.3456,-4.04167 -0.9899,2.57965 -10.9741,8.41408 -17.1145,10.00118 -7.6632,1.98068 -16.448,1.85375 -24.1417,-0.34883 z m 29.8634,-21.55675 c 4.2442,-2.02285 7.8099,-5.88737 11.0142,-11.93746 1.8176,-3.43169 2.1839,-5.79176 2.2022,-14.18718 0.02,-9.24983 -0.2234,-10.5505 -2.9884,-15.95704 -9.6108,-18.79253 -35.4442,-19.0489 -44.7565,-0.44416 -7.4589,14.9018 -2.3976,36.53396 9.9523,42.53688 7.2574,3.52758 17.161,3.52313 24.5762,-0.011 z m -366.65618,20.61671 c -0.28191,-0.45614 -0.42097,-30.26864 -0.30901,-66.25 l 0.20355,-65.42064 h 13.3399 13.3399 l 13.49207,25.5 c 7.42065,14.025 16.54839,31.43893 20.28387,38.69763 l 6.79178,13.19763 4.61776,-9.69763 c 2.53977,-5.3337 11.29524,-22.74763 19.45659,-38.69763 l 14.83882,-29 h 13.41965 13.41966 l 0.28979,66.25 0.28979,66.25 h -12.03979 -12.03979 l -0.006,-45.75 c -0.006,-42.20997 -0.12783,-45.51787 -1.57852,-42.75 -0.8648,1.65 -6.1433,11.775 -11.73,22.5 -5.58669,10.725 -12.86386,24.675 -16.17147,31 l -6.01385,11.5 h -7.30197 -7.30197 l -13.54862,-25.5 c -7.45174,-14.025 -15.73668,-29.775 -18.41098,-35 l -4.86236,-9.5 -0.0371,46.75 -0.0372,46.75 h -10.94098 c -6.01754,0 -11.17164,-0.37321 -11.45356,-0.82936 z m 157.39454,-47.17064 v -48 h 12 12 v 48 48 h -12 -12 z m 43,0 v -48 h 10.5 c 5.775,0 10.8171,-0.1125 11.2045,-0.25 0.3875,-0.1375 0.579,2.225 0.4255,5.25 l -0.279,5.5 3.82454,-3.64398 c 7.5245,-7.1693 11.1921,-8.35602 25.8245,-8.35602 12.1914,0 13.3521,0.17291 18.6605,2.77978 10.565,5.18826 16.8451,14.90391 18.7729,29.04258 0.5866,4.3023 1.0666,20.8398 1.0666,36.75 v 28.92764 h -11.9373 -11.9373 l -0.3127,-32.25 c -0.2733,-28.18852 -0.5286,-32.6443 -2.0268,-35.38088 -7.3128,-13.35737 -28.7911,-13.72275 -36.4927,-0.62081 l -2.7932,4.75169 -0.3019,31.75 -0.30204,31.75 h -11.9481 -11.948 z m -37.62797,-61.58857 c -7.09795,-3.50143 -8.56491,-14.68008 -2.69655,-20.54845 5.65093,-5.65093 17.3203,-5.37149 21.79225,0.52184 7.36737,9.70907 1.23685,21.64988 -11.08576,21.59241 -2.68509,-0.0125 -6.28955,-0.71713 -8.00994,-1.5658 z m 199.80431,-32.48143 c -6.5996,-1.29876 -14.5471,-5.30879 -19.4158,-9.79662 -4.2999,-3.96354 -8.962,-11.92162 -10.1835,-17.38338 l -0.6151,-2.75 h 12.4517 c 11.4415,0 12.5015,0.15725 13.0669,1.93841 0.9856,3.10558 7.1326,7.87984 11.7564,9.13104 6.018,1.62849 15.626,0.63834 21.3057,-2.19568 7.5545,-3.76942 12.4574,-13.25877 12.4574,-24.11062 v -4.919 l -4.1707,3.56993 c -7.0423,6.02797 -13.5766,8.0053 -26.3293,7.96743 -8.8709,-0.0263 -12.0646,-0.45215 -16.5,-2.19996 -11.6421,-4.58762 -20.248,-13.67021 -24.5784,-25.9397 -4.2704,-12.09976 -3.1174,-30.9758 2.6154,-42.8184 3.4535,-7.13402 12.2199,-15.9374 19.3043,-19.38593 15.38,-7.48657 34.9676,-5.95982 45.5448,3.54997 l 5.1139,4.59785 v -5.59267 -5.59267 h 11 11 l 0.089,27.25 c 0.1737,53.31744 -0.1771,68.66923 -1.7028,74.52686 -4.0517,15.55547 -14.9323,25.78181 -31.6167,29.7155 -6.7696,1.59606 -23.4909,1.83526 -30.5929,0.43764 z m 27.0571,-60.64005 c 5.0711,-2.02906 11.176,-9.15083 12.8838,-15.0299 1.6788,-5.77897 1.6291,-14.44939 -0.1134,-19.80329 -3.2742,-10.05961 -10.7694,-16.06103 -21.4333,-17.16164 -16.2631,-1.67849 -27.658,9.96891 -27.5266,28.13638 0.069,9.48729 4.139,18.02136 10.6213,22.2687 6.4492,4.22567 17.295,4.90002 25.5682,1.58975 z m -252.0072,26.59795 c -10.60216,-1.76568 -19.24151,-8.12625 -23.19476,-17.07674 -3.20445,-7.25516 -3.96721,-16.79979 -4.0006,-50.06116 l -0.0309,-30.75 h 11.92734 11.92734 l 0.32266,32.75 c 0.31512,31.98513 0.37658,32.85101 2.63133,37.07516 3.01536,5.64912 8.25475,8.12885 17.19133,8.13643 7.67716,0.007 12.60315,-2.34339 17.40494,-8.30286 l 3.09506,-3.84126 0.28882,-32.90874 0.28882,-32.90873 h 11.96118 11.9612 v 48 48 h -10 c -5.50002,0 -10.33752,0.006 -10.75002,0.0131 -0.4125,0.007 -0.88573,-2.23455 -1.05163,-4.9817 l -0.30162,-4.99484 -3.25197,3.23171 c -8.00576,7.95588 -21.38697,11.12297 -36.41854,8.61961 z m 112.8676,-0.0191 c -13.6327,-2.26282 -27.24874,-13.29319 -32.45124,-26.28872 -11.4753,-28.66481 0.9035,-62.24075 25.98234,-70.47351 9.2655,-3.04167 18.4869,-3.63385 26.6647,-1.71236 8.2003,1.92681 11.5934,3.60183 16.7701,8.27868 l 3.9403,3.55983 v -23.61636 -23.61636 h 11.5 11.5 v 66 66 h -11.5 -11.5 v -6.0348 -6.03479 l -3.1634,3.60286 c -3.9744,4.52666 -12.6585,8.96272 -20.3169,10.37845 -6.69,1.23671 -9.7624,1.22915 -17.4259,-0.0429 z m 26.8158,-22.69667 c 13.5024,-6.66969 18.0314,-26.44211 9.7327,-42.49022 -2.5855,-4.99992 -4.2161,-6.79219 -8.5275,-9.37348 -11.5457,-6.91254 -24.6227,-5.12996 -33.3664,4.54833 -8.2968,9.18349 -8.858,28.5801 -1.1685,40.38466 6.5799,10.10121 20.888,13.07649 33.3297,6.93071 z m 202.5013,22.41053 c -23.2192,-5.30592 -36.6682,-23.09515 -36.7296,-48.5827 -0.061,-25.54841 13.8348,-44.15222 37.0598,-49.61418 11.4018,-2.68145 27.91,-0.21741 37.4623,5.59169 5.5246,3.35973 13.3288,11.74432 16.1842,17.38779 3.9326,7.77279 5.587,14.97584 5.6005,24.3847 l 0.012,8.25 -24.25,0.0538 c -13.3375,0.0296 -29.817,0.006 -36.621,-0.0519 l -12.3711,-0.1057 0.6956,3.80193 c 1.5889,8.68574 9.1877,17.21876 17.11,19.21362 11.173,2.81338 21.0861,0.80076 27.1697,-5.51615 l 4.2332,-4.39553 h 12.0042 12.0042 l -2.469,5.58291 c -4.7739,10.79453 -13.1379,18.32601 -25.0058,22.51684 -7.7127,2.72352 -23.473,3.45186 -32.0891,1.48295 z m 35.5891,-59.45693 c 0,-2.78891 -3.5381,-10.09509 -6.2925,-12.99412 -7.2989,-7.68196 -19.6954,-9.50885 -29.732,-4.38161 -6.1582,3.14599 -11.9755,10.60692 -11.9755,15.35919 v 2.89081 h 24 c 13.2,0 24,-0.39342 24,-0.87427 z m 73.2672,59.88466 c -11.2292,-2.38822 -16.9224,-7.74985 -19.748,-18.59784 -1.1791,-4.52693 -1.5192,-11.93329 -1.5192,-33.08221 V 409.0125 l -8.25,-0.29044 -8.25,-0.29044 -0.2875,-9.25 -0.2876,-9.25 h 8.5376 8.5375 v -12.5 -12.5 h 12 12 v 12.5 12.5 h 11.5 11.5 v 9.5 9.5 h -11.5 -11.5 l 0.01,24.25 c 0.01,26.99968 0.6036,30.97945 4.9913,33.2484 3.2922,1.70244 11.5997,1.98568 15.438,0.52635 l 2.5651,-0.97525 v 9.87743 9.87742 l -3.25,1.1411 c -4.4286,1.5549 -17.3101,2.16506 -22.4828,1.06494 z m -588.54137,-2.61785 c -0.39923,-0.39923 -0.72587,-30.15409 -0.72587,-66.12192 v -65.39605 l 32.25,0.32135 32.25,0.32135 6.83137,2.88028 c 13.34691,5.62739 20.84175,16.73379 20.98863,31.10245 0.10622,10.39077 -2.40476,16.79336 -9.11444,23.24028 -3.01074,2.89285 -6.08867,5.25972 -6.83982,5.25972 -0.75116,0 -1.36574,0.45 -1.36574,1 0,0.55 0.79416,1 1.76481,1 2.38303,0 9.13594,3.64211 12.3521,6.66198 4.12091,3.86939 7.88877,12.59301 8.56449,19.82913 1.59297,17.05871 -7.16048,31.14715 -23.39909,37.66021 -5.5785,2.23746 -6.96393,2.33062 -39.30644,2.64314 -18.43827,0.17817 -33.85077,-0.003 -34.25,-0.40192 z m 62.95799,-22.336 c 5.95042,-2.70158 9.465,-8.34695 9.52751,-15.30376 0.0672,-7.4754 -2.38369,-12.18142 -8.0915,-15.53688 -4.50989,-2.65124 -5.06625,-2.72408 -23.36987,-3.05957 l -18.75,-0.34367 v 18.09367 18.09367 l 18.25,-0.022 c 15.76278,-0.019 18.8202,-0.28084 22.43386,-1.9215 z m -7.6395,-54.05234 c 4.0208,-1.11701 9.31585,-6.13258 10.89431,-10.3193 2.18689,-5.80055 0.7054,-14.0513 -3.32719,-18.52991 -4.42469,-4.91407 -7.08107,-5.56562 -24.36148,-5.97529 l -16.25,-0.38524 v 18.10277 18.10277 l 14.75,-0.006 c 8.1125,-0.003 16.34496,-0.44866 18.29436,-0.99022 z"
       id="path433" />
  </g>
</svg>
